<?xml version="1.0" encoding="UTF-8"?>
<svg version="1.1" viewBox="0 0 512 512" xmlns="http://www.w3.org/2000/svg">
	<path transform="matrix(6.4583 0 0 6.4583 -264.54 -852.71)" d="m73.208 181.66q-0.576-3.936 0.48-7.008 1.056-3.168 2.88-5.664 1.92-2.592 3.936-4.704 2.016-2.208 3.36-4.224 1.44-2.112 1.44-4.224 0-2.016-0.768-3.36t-2.304-2.016q-1.44-0.672-3.36-0.672-2.592 0-4.704 1.248-2.016 1.152-4.032 3.168l-7.776-7.104q3.456-3.84 8.064-6.24 4.608-2.496 10.272-2.496 5.088 0 9.216 1.728t6.528 5.376 2.4 9.312q0 3.552-1.44 6.336-1.44 2.688-3.552 4.992t-4.128 4.608-3.264 4.896-0.864 6.048zm6.144 23.328q-3.552 0-6.048-2.592-2.4-2.592-2.4-6.24 0-3.84 2.4-6.336 2.496-2.592 6.048-2.592 3.744 0 6.144 2.592 2.4 2.496 2.4 6.336 0 3.648-2.4 6.24t-6.144 2.592z" fill="#464646" aria-label="?"/>
</svg>
